<svg width="151" height="41" viewBox="0 0 151 41" fill="none" xmlns="http://www.w3.org/2000/svg">
<path d="M23.8063 19.6654V19.6654C24.8032 19.6654 25.6113 20.4736 25.6113 21.4704V22.1057C25.6113 23.4534 24.5187 24.5459 23.171 24.5459H22.8794C20.4077 24.5459 18.6678 23.6209 17.6596 21.7707C16.0335 24.0355 13.578 25.1679 10.2933 25.1679V25.1679C8.0271 25.1679 5.26861 26.8038 5.26861 29.07V31.4812C5.26861 32.9361 4.08919 34.1155 2.6343 34.1155V34.1155C1.17942 34.1155 0 32.9361 0 31.4812V3.25632C0 1.80144 1.17942 0.622021 2.6343 0.622021V0.622021C4.08919 0.622021 5.26861 1.80144 5.26861 3.25632V14.785C5.26861 16.5394 5.75644 17.911 6.73211 18.8999C7.70777 19.8568 9.02492 20.3353 10.6836 20.3353C12.5699 20.3353 14.0821 19.7771 15.2204 18.6606C16.3587 17.5123 16.9278 15.7579 16.9278 13.3974V3.25632C16.9278 1.80144 18.1073 0.622021 19.5621 0.622021V0.622021C21.017 0.622021 22.1964 1.80144 22.1964 3.25632V18.0865C22.1964 18.5649 22.3428 18.9477 22.6355 19.2348C22.9282 19.5219 23.3185 19.6654 23.8063 19.6654Z" fill="#FF8029"/>
<path d="M35.8695 14.2702C35.8695 17.0385 38.1136 19.2827 40.8819 19.2827H47.1411C48.5945 19.2827 49.7728 20.4609 49.7728 21.9143V21.9143C49.7728 23.3677 48.5945 24.5459 47.1411 24.5459H40.0161C34.6276 24.5459 30.2594 20.1777 30.2594 14.7892V3.427C30.2594 1.87782 31.5153 0.621956 33.0645 0.621956V0.621956C34.6136 0.621956 35.8695 1.87782 35.8695 3.427V14.2702Z" fill="#FF8029"/>
<path d="M59.0024 14.785C57.9614 14.785 57.17 15.7633 57.6479 16.6882C58.127 17.6156 58.7985 18.3847 59.6625 18.9956C61.0609 19.9525 62.7683 20.431 64.7847 20.431C66.6711 20.431 68.2394 19.9812 69.4897 19.0816C70.5376 18.3275 71.9331 17.9546 73.0533 18.5966V18.5966C74.3263 19.326 74.7191 21.0176 73.6425 22.0144C71.3717 24.1167 68.4029 25.1679 64.7359 25.1679C60.7682 25.1679 57.5648 23.9877 55.1256 21.6272C52.6864 19.2348 51.4668 16.2204 51.4668 12.584C51.4668 9.01133 52.6702 6.02882 55.0768 3.63643C57.4835 1.21214 60.5731 0 64.3457 0C67.9231 0 70.8501 1.22809 73.1267 3.68428C75.4357 6.14046 76.5903 9.12298 76.5903 12.6318V12.6318C76.5903 13.8742 75.4738 14.785 74.2315 14.785H59.0024ZM56.9306 10.5744H71.2729C70.9152 8.62855 70.0858 7.16122 68.7849 6.17236C67.5166 5.18351 66.0206 4.68908 64.2969 4.68908C62.3455 4.68908 60.7194 5.21541 59.4185 6.26806C58.1176 7.32071 57.2883 8.75614 56.9306 10.5744Z" fill="#FF8029"/>
<path d="M100.402 3.25632C100.402 1.80144 101.581 0.622021 103.036 0.622021V0.622021C104.491 0.622021 105.67 1.80144 105.67 3.25633V21.9116C105.67 23.3665 104.491 24.5459 103.036 24.5459V24.5459C101.581 24.5459 100.402 23.3665 100.402 21.9116V21.1009C98.4177 23.8122 95.572 25.1679 91.8644 25.1679C88.5146 25.1679 85.6527 23.9558 83.2786 21.5315C80.9044 19.0753 79.7174 16.0928 79.7174 12.584C79.7174 9.04323 80.9044 6.06072 83.2786 3.63643C85.6527 1.21214 88.5146 0 91.8644 0C95.572 0 98.4177 1.33974 100.402 4.01921V3.25632ZM87.1812 18.0865C88.6447 19.5219 90.4822 20.2396 92.6938 20.2396C94.9053 20.2396 96.7428 19.5219 98.2063 18.0865C99.6698 16.6191 100.402 14.785 100.402 12.584C100.402 10.383 99.6698 8.56475 98.2063 7.12932C96.7428 5.66199 94.9053 4.92832 92.6938 4.92832C90.4822 4.92832 88.6447 5.66199 87.1812 7.12932C85.7177 8.56475 84.986 10.383 84.986 12.584C84.986 14.785 85.7177 16.6191 87.1812 18.0865Z" fill="#FF8029"/>
<path d="M117.08 4.64124C118.058 2.46426 119.667 1.08606 121.907 0.506627C123.356 0.131646 124.592 1.40498 124.592 2.90201V2.90201C124.592 4.46639 123.239 5.64372 121.731 6.0615C120.865 6.30147 120.063 6.68931 119.324 7.22502C117.828 8.27767 117.08 10.0321 117.08 12.4883V21.9116C117.08 23.3665 115.9 24.5459 114.445 24.5459V24.5459C112.991 24.5459 111.811 23.3665 111.811 21.9116V3.25633C111.811 1.80144 112.991 0.622021 114.445 0.622021V0.622021C115.9 0.622021 117.08 1.80144 117.08 3.25633V4.64124Z" fill="#FF8029"/>
<path d="M141.315 0C144.112 0 146.372 0.877209 148.096 2.63163C149.82 4.38605 150.682 6.79439 150.682 9.85664V21.9116C150.682 23.3665 149.502 24.5459 148.047 24.5459V24.5459C146.592 24.5459 145.413 23.3665 145.413 21.9116V10.383C145.413 8.59665 144.925 7.22501 143.949 6.26806C142.974 5.3111 141.64 4.83263 139.949 4.83263C138.095 4.83263 136.599 5.4068 135.461 6.55515C134.323 7.67159 133.754 9.39411 133.754 11.7227V21.9116C133.754 23.3665 132.574 24.5459 131.119 24.5459V24.5459C129.665 24.5459 128.485 23.3665 128.485 21.9116V3.25632C128.485 1.80144 129.665 0.622021 131.119 0.622021V0.622021C132.574 0.622021 133.754 1.80144 133.754 3.25632V3.68428C135.347 1.22809 137.868 0 141.315 0Z" fill="#FF8029"/>
<path d="M57.18 40.0148C56.7448 40.0148 56.3611 39.9411 56.0288 39.7937C55.7044 39.6385 55.4513 39.4289 55.2693 39.1651C55.0873 38.8935 54.9963 38.5753 54.9963 38.2106C54.9963 37.8692 55.0715 37.5627 55.2218 37.2911C55.3801 37.0195 55.6214 36.7906 55.9457 36.6043C56.2701 36.4181 56.6776 36.2862 57.1681 36.2086L58.8039 35.944C59.116 35.8935 59.3992 36.1346 59.3992 36.4508V36.4508C59.3992 36.7009 59.219 36.9146 58.9725 36.9568L57.4292 37.2212C57.0732 37.2833 56.8121 37.3958 56.6459 37.5588C56.4798 37.714 56.3967 37.9157 56.3967 38.1641C56.3967 38.4046 56.4877 38.6025 56.6697 38.7577C56.8595 38.9051 57.1008 38.9789 57.3936 38.9789C57.7575 38.9789 58.074 38.9013 58.343 38.7461C58.6199 38.5909 58.8335 38.3852 58.9838 38.1291C59.1341 37.8653 59.2093 37.5743 59.2093 37.2562V35.6382C59.2093 35.3278 59.0906 35.0756 58.8533 34.8816C58.6238 34.6799 58.3153 34.579 57.9276 34.579C57.5716 34.579 57.2591 34.6721 56.9901 34.8583C56.9175 34.9079 56.8501 34.9617 56.788 35.0198C56.5238 35.2661 56.1385 35.4243 55.8142 35.2652V35.2652C55.519 35.1205 55.3755 34.7655 55.5774 34.5061C55.6634 34.3956 55.7624 34.2919 55.8745 34.1949C56.1435 33.9543 56.456 33.7681 56.8121 33.6361C57.176 33.5042 57.5597 33.4383 57.9632 33.4383C58.4696 33.4383 58.9166 33.5314 59.3042 33.7176C59.6998 33.9039 60.0044 34.1638 60.218 34.4975C60.4396 34.8234 60.5503 35.2036 60.5503 35.6382V39.2343C60.5503 39.5882 60.2634 39.8751 59.9095 39.8751H59.8027C59.5077 39.8751 59.2686 39.636 59.2686 39.3411V38.8524C59.2686 38.7898 59.3236 38.7415 59.3856 38.7494V38.7494C59.4595 38.7588 59.4995 38.8406 59.4576 38.9022C59.3212 39.1027 59.1554 39.2796 58.9601 39.4328C58.7306 39.6191 58.4656 39.7626 58.165 39.8635C57.8722 39.9644 57.5439 40.0148 57.18 40.0148Z" fill="black"/>
<path d="M68.4651 40.0148C67.8401 40.0148 67.2586 39.9023 66.7206 39.6773C66.1905 39.4522 65.7237 39.1418 65.3202 38.7461C64.9247 38.3425 64.6161 37.8692 64.3946 37.326C64.173 36.7828 64.0623 36.1853 64.0623 35.5334C64.0623 34.8894 64.1691 34.2957 64.3827 33.7525C64.6042 33.2016 64.9128 32.7282 65.3084 32.3325C65.704 31.929 66.1668 31.6186 66.6969 31.4013C67.2269 31.1762 67.8085 31.0637 68.4414 31.0637C69.0664 31.0637 69.6242 31.1685 70.1147 31.378C70.6131 31.5875 71.0325 31.863 71.3727 32.2044C71.5451 32.3736 71.6932 32.5507 71.8168 32.7358C72.0162 33.0342 71.859 33.4174 71.5349 33.5718V33.5718C71.1722 33.7446 70.7463 33.5612 70.4962 33.2467C70.3467 33.0588 70.1681 32.8937 69.9604 32.7515C69.5411 32.4566 69.0348 32.3092 68.4414 32.3092C67.8559 32.3092 67.3377 32.445 66.8867 32.7166C66.4358 32.9882 66.0837 33.3645 65.8305 33.8457C65.5853 34.3268 65.4626 34.8894 65.4626 35.5334C65.4626 36.1775 65.5892 36.744 65.8424 37.2329C66.1035 37.714 66.4595 38.0903 66.9105 38.3619C67.3614 38.6258 67.8797 38.7577 68.4651 38.7577C68.9557 38.7577 69.4027 38.6607 69.8062 38.4667C70.2176 38.2649 70.5459 37.9856 70.7912 37.6286C71.0364 37.2639 71.1591 36.841 71.1591 36.3599V36.1518C71.1591 36.0023 71.3356 35.923 71.4473 36.0223V36.0223C71.5664 36.1281 71.4915 36.325 71.3323 36.325H69.0234C68.702 36.325 68.4414 36.0644 68.4414 35.743V35.743C68.4414 35.4215 68.702 35.161 69.0234 35.161H71.7328C72.1828 35.161 72.5475 35.5258 72.5475 35.9758V35.9758C72.5475 36.6121 72.4368 37.1824 72.2153 37.6868C71.9937 38.1835 71.6931 38.6064 71.3133 38.9556C70.9336 39.3048 70.4984 39.5686 70.0079 39.7471C69.5174 39.9256 69.0031 40.0148 68.4651 40.0148Z" fill="black"/>
<path d="M76.1222 39.8751C75.7387 39.8751 75.4279 39.5643 75.4279 39.1809V33.6005C75.4279 32.9516 74.9019 32.4256 74.253 32.4256H73.6893C73.3518 32.4256 73.0782 32.152 73.0782 31.8145V31.8145C73.0782 31.477 73.3518 31.2034 73.6893 31.2034H78.5195C78.857 31.2034 79.1306 31.477 79.1306 31.8145V31.8145C79.1306 32.152 78.857 32.4256 78.5195 32.4256H77.9735C77.3345 32.4256 76.8164 32.9436 76.8164 33.5827V39.1809C76.8164 39.5643 76.5056 39.8751 76.1222 39.8751V39.8751Z" fill="black"/>
<path d="M82.227 40.0148C81.5861 40.0148 81.0165 39.8713 80.5181 39.5841C80.0275 39.2893 79.6438 38.8935 79.3669 38.3969C79.09 37.8925 78.9516 37.3299 78.9516 36.7091C78.9516 36.0728 79.09 35.5102 79.3669 35.0213C79.6517 34.5324 80.0315 34.1483 80.5062 33.8689C80.9809 33.5818 81.5189 33.4383 82.1202 33.4383C82.6028 33.4383 83.034 33.5197 83.4137 33.6827C83.7935 33.8457 84.1139 34.0707 84.375 34.3578C84.6361 34.6372 84.8339 34.9592 84.9684 35.3239C85.1108 35.6886 85.182 36.0766 85.182 36.4879C85.182 36.5888 85.178 36.6936 85.1701 36.8022V36.8022C85.157 36.9822 84.9964 37.1048 84.8159 37.1048H80.5316C80.2423 37.1048 80.0078 36.8703 80.0078 36.581V36.581C80.0078 36.2918 80.2423 36.0572 80.5316 36.0572H83.9366C84.0727 36.0572 84.1302 36.2307 84.021 36.312V36.312C83.9167 36.3897 83.7632 36.2951 83.7659 36.1651C83.7707 35.9319 83.7285 35.7174 83.6392 35.5218C83.5126 35.2192 83.3148 34.9825 83.0458 34.8118C82.7848 34.6333 82.4762 34.5441 82.1202 34.5441C81.7642 34.5441 81.4477 34.6333 81.1708 34.8118C80.8939 34.9825 80.6803 35.2308 80.5299 35.5567C80.3951 35.8421 80.3335 36.1837 80.345 36.5814C80.3477 36.6742 80.3464 36.7671 80.3424 36.8598C80.3266 37.229 80.3891 37.5551 80.5299 37.8381C80.6961 38.1563 80.9255 38.4046 81.2182 38.5831C81.5189 38.7616 81.8591 38.8508 82.2389 38.8508C82.6265 38.8508 82.9549 38.7655 83.2239 38.5947C83.3244 38.5328 83.4171 38.4641 83.502 38.3888C83.753 38.1663 84.1096 38.0431 84.412 38.1881V38.1881C84.723 38.3373 84.8656 38.7129 84.6456 38.9785C84.5652 39.0755 84.4751 39.1688 84.375 39.2582C84.1139 39.491 83.7975 39.6773 83.4256 39.8169C83.0617 39.9489 82.6621 40.0148 82.227 40.0148Z" fill="black"/>
<path d="M89.5407 40.0148C88.8999 40.0148 88.3302 39.8713 87.8318 39.5841C87.3413 39.2893 86.9496 38.8935 86.6569 38.3969C86.3721 37.9002 86.2297 37.3376 86.2297 36.7091C86.2297 36.0883 86.3721 35.5296 86.6569 35.0329C86.9417 34.5363 87.3334 34.1483 87.8318 33.8689C88.3302 33.5818 88.8999 33.4383 89.5407 33.4383C89.9759 33.4383 90.3833 33.5159 90.7631 33.6711C91.1428 33.8185 91.4712 34.0241 91.7481 34.288C91.8757 34.4062 91.9882 34.533 92.0857 34.6684C92.2874 34.9485 92.132 35.3192 91.8178 35.4624V35.4624C91.4815 35.6157 91.0922 35.4434 90.8282 35.1847C90.7449 35.1032 90.652 35.0293 90.5494 34.9631C90.2567 34.7613 89.9205 34.6605 89.5407 34.6605C89.1768 34.6605 88.8484 34.7497 88.5557 34.9282C88.2709 35.0989 88.0454 35.3433 87.8793 35.6615C87.7131 35.9719 87.63 36.325 87.63 36.7207C87.63 37.1165 87.7131 37.4734 87.8793 37.7916C88.0454 38.102 88.2709 38.3464 88.5557 38.5249C88.8484 38.7034 89.1768 38.7926 89.5407 38.7926C89.9284 38.7926 90.2646 38.6956 90.5494 38.5016C90.652 38.4309 90.7453 38.3522 90.8294 38.2653C91.089 37.9972 91.4823 37.8289 91.8206 37.9864V37.9864C92.1343 38.1325 92.2883 38.5033 92.0852 38.7835C91.9916 38.9126 91.8832 39.0359 91.7599 39.1535C91.483 39.4173 91.1547 39.6268 90.7749 39.782C90.3952 39.9372 89.9838 40.0148 89.5407 40.0148Z" fill="black"/>
<path d="M94.3583 39.8751C93.988 39.8751 93.6878 39.5749 93.6878 39.2046V31.7342C93.6878 31.3639 93.988 31.0637 94.3583 31.0637V31.0637C94.7286 31.0637 95.0288 31.3639 95.0288 31.7342V34.6165C95.0288 34.6965 94.9371 34.7419 94.8735 34.6933V34.6933C94.839 34.667 94.8261 34.6208 94.8436 34.5811C95.003 34.2188 95.2467 33.9426 95.5747 33.7525C95.9228 33.543 96.3263 33.4383 96.7852 33.4383C97.2599 33.4383 97.6792 33.5391 98.0431 33.7409C98.4071 33.9427 98.6919 34.222 98.8976 34.579C99.1033 34.9359 99.2061 35.3433 99.2061 35.8012V39.2106C99.2061 39.5776 98.9086 39.8751 98.5416 39.8751V39.8751C98.1745 39.8751 97.877 39.5776 97.877 39.2106V36.162C97.877 35.8438 97.8137 35.5761 97.6871 35.3588C97.5684 35.1338 97.4023 34.9631 97.1887 34.8467C96.9751 34.7225 96.7298 34.6605 96.4529 34.6605C96.1839 34.6605 95.9386 34.7225 95.7171 34.8467C95.5035 34.9631 95.3334 35.1338 95.2068 35.3588C95.0881 35.5839 95.0288 35.8516 95.0288 36.162V39.2046C95.0288 39.5749 94.7286 39.8751 94.3583 39.8751V39.8751Z" fill="black"/>
<path d="M103.547 39.8751C103.16 39.8751 102.846 39.5617 102.846 39.175V31.9036C102.846 31.5169 103.16 31.2034 103.547 31.2034V31.2034C103.933 31.2034 104.247 31.5169 104.247 31.9036V39.175C104.247 39.5617 103.933 39.8751 103.547 39.8751V39.8751Z" fill="black"/>
<path d="M106.62 39.8751C106.249 39.8751 105.949 39.5749 105.949 39.2046V34.2188C105.949 33.8649 106.236 33.5779 106.59 33.5779H106.88C107.074 33.5779 107.231 33.7353 107.231 33.9294V34.6329C107.231 34.6973 107.152 34.7287 107.108 34.6819V34.6819C107.089 34.6617 107.083 34.6322 107.094 34.6067C107.253 34.2318 107.501 33.9471 107.836 33.7525C108.184 33.543 108.588 33.4383 109.047 33.4383C109.521 33.4383 109.941 33.5391 110.305 33.7409C110.669 33.9427 110.953 34.222 111.159 34.579C111.365 34.9359 111.468 35.3472 111.468 35.8128V39.2106C111.468 39.5776 111.17 39.8751 110.803 39.8751V39.8751C110.436 39.8751 110.139 39.5776 110.139 39.2106V36.162C110.139 35.8438 110.079 35.5761 109.961 35.3588C109.842 35.1338 109.672 34.9631 109.45 34.8467C109.237 34.7225 108.991 34.6605 108.714 34.6605C108.438 34.6605 108.188 34.7225 107.967 34.8467C107.753 34.9631 107.587 35.1338 107.468 35.3588C107.35 35.5839 107.29 35.8516 107.29 36.162V39.2046C107.29 39.5749 106.99 39.8751 106.62 39.8751V39.8751Z" fill="black"/>
<path d="M113.573 39.8751C113.203 39.8751 112.903 39.5749 112.903 39.2046V34.2485C112.903 33.8781 113.203 33.5779 113.573 33.5779V33.5779C113.944 33.5779 114.244 33.8781 114.244 34.2485V39.2046C114.244 39.5749 113.944 39.8751 113.573 39.8751V39.8751ZM113.573 32.7166C113.203 32.7166 112.903 32.4164 112.903 32.0461V31.8739C112.903 31.5036 113.203 31.2034 113.573 31.2034V31.2034C113.944 31.2034 114.244 31.5036 114.244 31.8739V32.0461C114.244 32.4164 113.944 32.7166 113.573 32.7166V32.7166Z" fill="black"/>
<path d="M118.589 39.945C117.916 39.945 117.394 39.7587 117.022 39.3863C116.65 39.0138 116.465 38.49 116.465 37.8149V35.3289C116.465 35.0176 116.212 34.7652 115.901 34.7652V34.7652C115.59 34.7652 115.337 34.5128 115.337 34.2015V33.756C115.337 33.6576 115.417 33.5779 115.515 33.5779V33.5779C115.816 33.5779 116.049 33.4926 116.215 33.3219C116.381 33.1511 116.465 32.9183 116.465 32.6235V32.6235C116.465 32.3535 116.683 32.1346 116.953 32.1346H117.135C117.505 32.1346 117.806 32.4348 117.806 32.8051V32.8563C117.806 33.2548 118.129 33.5779 118.527 33.5779H118.672C119 33.5779 119.265 33.8437 119.265 34.1716V34.1716C119.265 34.4994 119 34.7652 118.672 34.7652H118.535C118.132 34.7652 117.806 35.092 117.806 35.4951V37.7567C117.806 37.9739 117.841 38.1602 117.912 38.3154C117.984 38.4628 118.098 38.5792 118.257 38.6646C118.415 38.7422 118.62 38.781 118.874 38.781C118.937 38.781 119.008 38.7771 119.087 38.7693V38.7693C119.208 38.7575 119.313 38.8517 119.313 38.9727V39.5043C119.313 39.7169 119.156 39.8973 118.945 39.9217V39.9217C118.81 39.9372 118.692 39.945 118.589 39.945Z" fill="black"/>
<path d="M121.292 39.8751C120.922 39.8751 120.621 39.5749 120.621 39.2046V34.2485C120.621 33.8781 120.922 33.5779 121.292 33.5779V33.5779C121.662 33.5779 121.962 33.8781 121.962 34.2485V39.2046C121.962 39.5749 121.662 39.8751 121.292 39.8751V39.8751ZM121.292 32.7166C120.922 32.7166 120.621 32.4164 120.621 32.0461V31.8739C120.621 31.5036 120.922 31.2034 121.292 31.2034V31.2034C121.662 31.2034 121.962 31.5036 121.962 31.8739V32.0461C121.962 32.4164 121.662 32.7166 121.292 32.7166V32.7166Z" fill="black"/>
<path d="M125.453 40.0148C125.018 40.0148 124.634 39.9411 124.302 39.7937C123.977 39.6385 123.724 39.4289 123.542 39.1651C123.36 38.8935 123.269 38.5753 123.269 38.2106C123.269 37.8692 123.344 37.5627 123.495 37.2911C123.653 37.0195 123.894 36.7906 124.219 36.6043C124.543 36.4181 124.951 36.2862 125.441 36.2086L127.077 35.944C127.389 35.8935 127.672 36.1346 127.672 36.4508V36.4508C127.672 36.7009 127.492 36.9146 127.245 36.9568L125.702 37.2212C125.346 37.2833 125.085 37.3958 124.919 37.5588C124.753 37.714 124.67 37.9157 124.67 38.1641C124.67 38.4046 124.761 38.6025 124.943 38.7577C125.132 38.9051 125.374 38.9789 125.667 38.9789C126.03 38.9789 126.347 38.9013 126.616 38.7461C126.893 38.5909 127.106 38.3852 127.257 38.1291C127.407 37.8653 127.482 37.5743 127.482 37.2562V35.6382C127.482 35.3278 127.364 35.0756 127.126 34.8816C126.897 34.6799 126.588 34.579 126.201 34.579C125.845 34.579 125.532 34.6721 125.263 34.8583C125.19 34.9079 125.123 34.9617 125.061 35.0198C124.797 35.2661 124.411 35.4243 124.087 35.2652V35.2652C123.792 35.1205 123.648 34.7655 123.85 34.5061C123.936 34.3956 124.035 34.2919 124.147 34.1949C124.416 33.9543 124.729 33.7681 125.085 33.6361C125.449 33.5042 125.833 33.4383 126.236 33.4383C126.743 33.4383 127.19 33.5314 127.577 33.7176C127.973 33.9039 128.277 34.1638 128.491 34.4975C128.713 34.8234 128.823 35.2036 128.823 35.6382V39.2343C128.823 39.5882 128.536 39.8751 128.182 39.8751H128.076C127.781 39.8751 127.542 39.636 127.542 39.3411V38.8524C127.542 38.7898 127.597 38.7415 127.659 38.7494V38.7494C127.732 38.7588 127.772 38.8406 127.731 38.9022C127.594 39.1027 127.428 39.2796 127.233 39.4328C127.004 39.6191 126.739 39.7626 126.438 39.8635C126.145 39.9644 125.817 40.0148 125.453 40.0148Z" fill="black"/>
<path d="M133.052 39.945C132.38 39.945 131.858 39.7587 131.486 39.3863C131.114 39.0138 130.928 38.49 130.928 37.8149V35.3289C130.928 35.0176 130.676 34.7652 130.364 34.7652V34.7652C130.053 34.7652 129.801 34.5128 129.801 34.2015V33.756C129.801 33.6576 129.88 33.5779 129.979 33.5779V33.5779C130.279 33.5779 130.513 33.4926 130.679 33.3219C130.845 33.1511 130.928 32.9183 130.928 32.6235V32.6235C130.928 32.3535 131.147 32.1346 131.417 32.1346H131.599C131.969 32.1346 132.269 32.4348 132.269 32.8051V32.8563C132.269 33.2548 132.592 33.5779 132.991 33.5779H133.135C133.463 33.5779 133.729 33.8437 133.729 34.1716V34.1716C133.729 34.4994 133.463 34.7652 133.135 34.7652H132.999C132.596 34.7652 132.269 35.092 132.269 35.4951V37.7567C132.269 37.9739 132.305 38.1602 132.376 38.3154C132.447 38.4628 132.562 38.5792 132.72 38.6646C132.878 38.7422 133.084 38.781 133.337 38.781C133.4 38.781 133.472 38.7771 133.551 38.7693V38.7693C133.671 38.7575 133.776 38.8517 133.776 38.9727V39.5043C133.776 39.7169 133.62 39.8973 133.408 39.9217V39.9217C133.274 39.9372 133.155 39.945 133.052 39.945Z" fill="black"/>
<path d="M135.755 39.8751C135.385 39.8751 135.085 39.5749 135.085 39.2046V34.2485C135.085 33.8781 135.385 33.5779 135.755 33.5779V33.5779C136.126 33.5779 136.426 33.8781 136.426 34.2485V39.2046C136.426 39.5749 136.126 39.8751 135.755 39.8751V39.8751ZM135.755 32.7166C135.385 32.7166 135.085 32.4164 135.085 32.0461V31.8739C135.085 31.5036 135.385 31.2034 135.755 31.2034V31.2034C136.126 31.2034 136.426 31.5036 136.426 31.8739V32.0461C136.426 32.4164 136.126 32.7166 135.755 32.7166V32.7166Z" fill="black"/>
<path d="M140.469 39.8751C140.099 39.8751 139.767 39.6501 139.63 39.3071L137.71 34.501C137.533 34.0588 137.859 33.5779 138.335 33.5779V33.5779C138.615 33.5779 138.866 33.7515 138.965 34.0138L140.641 38.4613C140.687 38.5821 140.597 38.7111 140.468 38.7111V38.7111C140.339 38.7111 140.25 38.5821 140.295 38.4613L141.97 34.0168C142.07 33.7527 142.322 33.5779 142.605 33.5779V33.5779C143.085 33.5779 143.413 34.063 143.234 34.5084L141.307 39.3084C141.17 39.6508 140.838 39.8751 140.469 39.8751V39.8751Z" fill="black"/>
<path d="M147.417 40.0148C146.776 40.0148 146.207 39.8713 145.708 39.5841C145.218 39.2893 144.834 38.8935 144.557 38.3969C144.28 37.8925 144.142 37.3299 144.142 36.7091C144.142 36.0728 144.28 35.5102 144.557 35.0213C144.842 34.5324 145.222 34.1483 145.696 33.8689C146.171 33.5818 146.709 33.4383 147.31 33.4383C147.793 33.4383 148.224 33.5197 148.604 33.6827C148.984 33.8457 149.304 34.0707 149.565 34.3578C149.826 34.6372 150.024 34.9592 150.159 35.3239C150.301 35.6886 150.372 36.0766 150.372 36.4879C150.372 36.5888 150.368 36.6936 150.36 36.8022V36.8022C150.347 36.9822 150.187 37.1048 150.006 37.1048H145.722C145.432 37.1048 145.198 36.8703 145.198 36.581V36.581C145.198 36.2918 145.432 36.0572 145.722 36.0572H149.127C149.263 36.0572 149.32 36.2307 149.211 36.312V36.312C149.107 36.3897 148.953 36.2951 148.956 36.1651C148.961 35.9319 148.919 35.7174 148.829 35.5218C148.703 35.2192 148.505 34.9825 148.236 34.8118C147.975 34.6333 147.666 34.5441 147.31 34.5441C146.954 34.5441 146.638 34.6333 146.361 34.8118C146.084 34.9825 145.87 35.2308 145.72 35.5567C145.585 35.8421 145.524 36.1837 145.535 36.5814C145.538 36.6742 145.537 36.7671 145.533 36.8598C145.517 37.229 145.579 37.5551 145.72 37.8381C145.886 38.1563 146.116 38.4046 146.408 38.5831C146.709 38.7616 147.049 38.8508 147.429 38.8508C147.817 38.8508 148.145 38.7655 148.414 38.5947C148.515 38.5328 148.607 38.4641 148.692 38.3888C148.943 38.1663 149.3 38.0431 149.602 38.1881V38.1881C149.913 38.3373 150.056 38.7129 149.836 38.9785C149.755 39.0755 149.665 39.1688 149.565 39.2582C149.304 39.491 148.988 39.6773 148.616 39.8169C148.252 39.9489 147.852 40.0148 147.417 40.0148Z" fill="black"/>
</svg>
